M48
INCH,TZ
T1C0.0157
T2C0.0315
T3C0.0394
T4C0.0400
T5C0.0420
T6C0.0512
T7C0.0690
T8C0.1969
%
G90
G05
T1
X37744Y-20472
X37949Y-21004
X38409Y-21516
X39004Y-33579
X39449Y-31685
X39646Y-32957
X39764Y-34917
X39772Y-35382
X39787Y-35878
X40047Y-33323
X40807Y-40606
X41079Y-38150
X41161Y-39787
X41406Y-42799
X41736Y-26917
X41819Y-38201
X42413Y-38150
X42802Y-37781
X42827Y-38205
X43433Y-40228
X43661Y-32961
X43677Y-32426
X44445Y-24717
X45646Y-19910
X46051Y-52439
X46102Y-34835
X46791Y-41248
X46846Y-40055
X47114Y-35870
X47183Y-52449
X47295Y-49362
X47303Y-49720
X47854Y-26898
X48236Y-53787
X48236Y-54289
X48236Y-54791
X49417Y-44772
X50882Y-32083
X51110Y-38634
X51272Y-21516
X51354Y-32368
X51563Y-25445
X51630Y-31724
X52047Y-43980
X52193Y-33854
X52634Y-38488
X53358Y-26906
X53913Y-38563
X54465Y-48157
X54957Y-46835
X55185Y-35453
X55630Y-47701
X55882Y-33008
X56354Y-45461
X56945Y-25512
X56969Y-19980
X57071Y-47843
X57209Y-45472
X57303Y-38165
X57346Y-36480
X57720Y-31004
X57748Y-32862
X58055Y-35941
X58114Y-36831
X58425Y-36319
X58575Y-38079
X58925Y-34492
X59087Y-31622
X59280Y-26961
X59303Y-39555
X59618Y-39309
X59618Y-42409
X59843Y-46791
X59917Y-40417
X59933Y-44362
X60264Y-31083
X60335Y-36368
X60524Y-35819
X60587Y-40437
X60724Y-35161
X60781Y-34549
X60819Y-36650
X60913Y-37339
X61244Y-32134
X61728Y-25224
X61882Y-42547
X61886Y-42000
X61888Y-32992
X61933Y-31583
X62016Y-39024
X62031Y-32610
X62078Y-35462
X62339Y-31744
X62343Y-37087
X62414Y-32518
X62579Y-37803
X62685Y-31500
X62783Y-32846
X62807Y-35787
X62898Y-37056
X62980Y-37441
X63945Y-31736
X63984Y-42772
X64087Y-39264
X64240Y-32531
X64299Y-41047
X64307Y-33201
X64453Y-45335
X64622Y-33567
X64722Y-29445
X64858Y-35894
X64937Y-33980
X64988Y-38248
X65150Y-35622
X65437Y-37091
X65528Y-41043
X65626Y-21268
X65783Y-39512
X65860Y-30925
X66043Y-50457
X66280Y-35980
X66287Y-39913
X66886Y-39185
X67437Y-28406
X67528Y-30232
X68031Y-28161
X68150Y-35898
X68406Y-29311
X68823Y-31276
X68945Y-56748
X70035Y-31278
X70303Y-40512
X70311Y-40894
X70673Y-40894
X70681Y-40508
X72409Y-33610
X72433Y-29902
X72563Y-33165
X73795Y-56846
X73819Y-33016
X73862Y-27378
X73874Y-28331
X73894Y-30319
X74768Y-34616
X75189Y-31150
X75713Y-33354
X75819Y-35531
X76070Y-43575
X76150Y-37008
X76500Y-42362
X76720Y-33811
X76858Y-23467
X76858Y-23880
X78049Y-26516
X78463Y-26516
X78952Y-46683
X79250Y-44627
X80563Y-49198
X80752Y-45583
X81508Y-49403
X81562Y-44731
X82264Y-48285
X83031Y-49230
X83150Y-42685
T2
X64209Y-24354
X64209Y-27354
X65209Y-24354
X65209Y-27354
X66209Y-24354
X66209Y-27354
X67209Y-24354
X67209Y-27354
X75056Y-45387
X75056Y-46387
X75056Y-47387
X75056Y-48387
X78056Y-45387
X78056Y-46387
X78056Y-47387
X78056Y-48387
T3
X48814Y-47632
X49814Y-47632
X50814Y-47632
X63929Y-48455
X64929Y-48455
X65929Y-48455
X70717Y-32415
X70717Y-33415
X70717Y-34415
X87626Y-42311
X87626Y-43311
X87626Y-44311
X87626Y-45311
X87626Y-46311
X87626Y-47311
T4
X50591Y-40953
X50591Y-41953
X51591Y-40953
X51591Y-41953
X52591Y-40953
X52591Y-41953
X53591Y-40953
X53591Y-41953
X54591Y-40953
X54591Y-41953
T5
X58429Y-51020
X58429Y-53972
T6
X33533Y-24430
X33533Y-25822
X34924Y-24430
X34924Y-25822
T7
X33642Y-36102
X33642Y-37677
X33642Y-39252
X33642Y-40827
X33642Y-42402
X33642Y-43976
X33642Y-45551
X33642Y-47126
X35217Y-36890
X35217Y-38465
X35217Y-40039
X35217Y-41614
X35217Y-43189
X35217Y-44764
X35217Y-46339
X36791Y-36102
X36791Y-37677
X36791Y-39252
X36791Y-40827
X36791Y-42402
X36791Y-43976
X36791Y-45551
X36791Y-47126
T8
X34063Y-18945
X34063Y-55953
X68709Y-18945
X85638Y-55953
T0
M30
