G04 #@! TF.GenerationSoftware,KiCad,Pcbnew,5.99.0-unknown-6a369b230f~117~ubuntu20.04.1*
G04 #@! TF.CreationDate,2021-05-15T11:46:25+08:00*
G04 #@! TF.ProjectId,Controller,436f6e74-726f-46c6-9c65-722e6b696361,rev?*
G04 #@! TF.SameCoordinates,Original*
G04 #@! TF.FileFunction,Soldermask,Top*
G04 #@! TF.FilePolarity,Negative*
%FSLAX46Y46*%
G04 Gerber Fmt 4.6, Leading zero omitted, Abs format (unit mm)*
G04 Created by KiCad (PCBNEW 5.99.0-unknown-6a369b230f~117~ubuntu20.04.1) date 2021-05-15 11:46:25*
%MOMM*%
%LPD*%
G01*
G04 APERTURE LIST*
G04 Aperture macros list*
%AMRoundRect*
0 Rectangle with rounded corners*
0 $1 Rounding radius*
0 $2 $3 $4 $5 $6 $7 $8 $9 X,Y pos of 4 corners*
0 Add a 4 corners polygon primitive as box body*
4,1,4,$2,$3,$4,$5,$6,$7,$8,$9,$2,$3,0*
0 Add four circle primitives for the rounded corners*
1,1,$1+$1,$2,$3*
1,1,$1+$1,$4,$5*
1,1,$1+$1,$6,$7*
1,1,$1+$1,$8,$9*
0 Add four rect primitives between the rounded corners*
20,1,$1+$1,$2,$3,$4,$5,0*
20,1,$1+$1,$4,$5,$6,$7,0*
20,1,$1+$1,$6,$7,$8,$9,0*
20,1,$1+$1,$8,$9,$2,$3,0*%
%AMFreePoly0*
4,1,48,0.036020,0.199191,0.037970,0.199714,0.040958,0.198321,0.057086,0.195477,0.069630,0.184951,0.084467,0.178033,0.290533,-0.028033,0.293203,-0.031847,0.294953,-0.032857,0.296081,-0.035957,0.305473,-0.049370,0.306900,-0.065680,0.312500,-0.081066,0.312500,-0.125000,0.310782,-0.134742,0.311361,-0.138024,0.309695,-0.140910,0.307977,-0.150652,0.295451,-0.165579,0.285709,-0.182453,
0.279350,-0.184767,0.275000,-0.189952,0.255809,-0.193336,0.237500,-0.200000,-0.237500,-0.200000,-0.247242,-0.198282,-0.250524,-0.198861,-0.253410,-0.197195,-0.263152,-0.195477,-0.278079,-0.182951,-0.294953,-0.173209,-0.297267,-0.166850,-0.302452,-0.162500,-0.305836,-0.143309,-0.312500,-0.125000,-0.312500,0.125000,-0.310782,0.134742,-0.311361,0.138024,-0.309695,0.140910,-0.307977,0.150652,
-0.295451,0.165579,-0.285709,0.182453,-0.279350,0.184767,-0.275000,0.189952,-0.255809,0.193336,-0.237500,0.200000,0.031434,0.200000,0.036020,0.199191,0.036020,0.199191,$1*%
%AMFreePoly1*
4,1,48,0.247242,0.198282,0.250524,0.198861,0.253410,0.197195,0.263152,0.195477,0.278079,0.182951,0.294953,0.173209,0.297267,0.166850,0.302452,0.162500,0.305836,0.143309,0.312500,0.125000,0.312500,0.081066,0.311691,0.076480,0.312214,0.074529,0.310820,0.071540,0.307977,0.055414,0.297452,0.042871,0.290533,0.028033,0.084467,-0.178033,0.080653,-0.180703,0.079643,-0.182453,
0.076543,-0.183581,0.063130,-0.192973,0.046819,-0.194400,0.031434,-0.200000,-0.237500,-0.200000,-0.247242,-0.198282,-0.250524,-0.198861,-0.253410,-0.197195,-0.263152,-0.195477,-0.278079,-0.182951,-0.294953,-0.173209,-0.297267,-0.166850,-0.302452,-0.162500,-0.305836,-0.143309,-0.312500,-0.125000,-0.312500,0.125000,-0.310782,0.134742,-0.311361,0.138024,-0.309695,0.140910,-0.307977,0.150652,
-0.295451,0.165579,-0.285709,0.182453,-0.279350,0.184767,-0.275000,0.189952,-0.255809,0.193336,-0.237500,0.200000,0.237500,0.200000,0.247242,0.198282,0.247242,0.198282,$1*%
%AMFreePoly2*
4,1,48,0.134742,0.310782,0.138024,0.311361,0.140910,0.309695,0.150652,0.307977,0.165579,0.295451,0.182453,0.285709,0.184767,0.279350,0.189952,0.275000,0.193336,0.255809,0.200000,0.237500,0.200000,-0.237500,0.198282,-0.247242,0.198861,-0.250524,0.197195,-0.253410,0.195477,-0.263152,0.182951,-0.278079,0.173209,-0.294953,0.166850,-0.297267,0.162500,-0.302452,0.143309,-0.305836,
0.125000,-0.312500,-0.125000,-0.312500,-0.134742,-0.310782,-0.138024,-0.311361,-0.140910,-0.309695,-0.150652,-0.307977,-0.165579,-0.295451,-0.182453,-0.285709,-0.184767,-0.279350,-0.189952,-0.275000,-0.193336,-0.255809,-0.200000,-0.237500,-0.200000,0.031434,-0.199191,0.036020,-0.199714,0.037970,-0.198321,0.040958,-0.195477,0.057086,-0.184951,0.069630,-0.178033,0.084467,0.028033,0.290533,
0.031847,0.293203,0.032857,0.294953,0.035957,0.296081,0.049370,0.305473,0.065680,0.306900,0.081066,0.312500,0.125000,0.312500,0.134742,0.310782,0.134742,0.310782,$1*%
%AMFreePoly3*
4,1,48,-0.076480,0.311691,-0.074530,0.312214,-0.071542,0.310821,-0.055414,0.307977,-0.042870,0.297451,-0.028033,0.290533,0.178033,0.084467,0.180703,0.080653,0.182453,0.079643,0.183581,0.076543,0.192973,0.063130,0.194400,0.046820,0.200000,0.031434,0.200000,-0.237500,0.198282,-0.247242,0.198861,-0.250524,0.197195,-0.253410,0.195477,-0.263152,0.182951,-0.278079,0.173209,-0.294953,
0.166850,-0.297267,0.162500,-0.302452,0.143309,-0.305836,0.125000,-0.312500,-0.125000,-0.312500,-0.134742,-0.310782,-0.138024,-0.311361,-0.140910,-0.309695,-0.150652,-0.307977,-0.165579,-0.295451,-0.182453,-0.285709,-0.184767,-0.279350,-0.189952,-0.275000,-0.193336,-0.255809,-0.200000,-0.237500,-0.200000,0.237500,-0.198282,0.247242,-0.198861,0.250524,-0.197195,0.253410,-0.195477,0.263152,
-0.182951,0.278079,-0.173209,0.294953,-0.166850,0.297267,-0.162500,0.302452,-0.143309,0.305836,-0.125000,0.312500,-0.081066,0.312500,-0.076480,0.311691,-0.076480,0.311691,$1*%
%AMFreePoly4*
4,1,48,0.247242,0.198282,0.250524,0.198861,0.253410,0.197195,0.263152,0.195477,0.278079,0.182951,0.294953,0.173209,0.297267,0.166850,0.302452,0.162500,0.305836,0.143309,0.312500,0.125000,0.312500,-0.125000,0.310782,-0.134742,0.311361,-0.138024,0.309695,-0.140910,0.307977,-0.150652,0.295451,-0.165579,0.285709,-0.182453,0.279350,-0.184767,0.275000,-0.189952,0.255809,-0.193336,
0.237500,-0.200000,-0.031434,-0.200000,-0.036020,-0.199191,-0.037971,-0.199714,-0.040960,-0.198320,-0.057086,-0.195477,-0.069629,-0.184952,-0.084467,-0.178033,-0.290533,0.028033,-0.293203,0.031847,-0.294953,0.032857,-0.296081,0.035957,-0.305473,0.049370,-0.306900,0.065681,-0.312500,0.081066,-0.312500,0.125000,-0.310782,0.134742,-0.311361,0.138024,-0.309695,0.140910,-0.307977,0.150652,
-0.295451,0.165579,-0.285709,0.182453,-0.279350,0.184767,-0.275000,0.189952,-0.255809,0.193336,-0.237500,0.200000,0.237500,0.200000,0.247242,0.198282,0.247242,0.198282,$1*%
%AMFreePoly5*
4,1,48,0.247242,0.198282,0.250524,0.198861,0.253410,0.197195,0.263152,0.195477,0.278079,0.182951,0.294953,0.173209,0.297267,0.166850,0.302452,0.162500,0.305836,0.143309,0.312500,0.125000,0.312500,-0.125000,0.310782,-0.134742,0.311361,-0.138024,0.309695,-0.140910,0.307977,-0.150652,0.295451,-0.165579,0.285709,-0.182453,0.279350,-0.184767,0.275000,-0.189952,0.255809,-0.193336,
0.237500,-0.200000,-0.237500,-0.200000,-0.247242,-0.198282,-0.250524,-0.198861,-0.253410,-0.197195,-0.263152,-0.195477,-0.278079,-0.182951,-0.294953,-0.173209,-0.297267,-0.166850,-0.302452,-0.162500,-0.305836,-0.143309,-0.312500,-0.125000,-0.312500,-0.081066,-0.311691,-0.076480,-0.312214,-0.074530,-0.310821,-0.071542,-0.307977,-0.055414,-0.297451,-0.042870,-0.290533,-0.028033,-0.084467,0.178033,
-0.080653,0.180703,-0.079643,0.182453,-0.076543,0.183581,-0.063130,0.192973,-0.046820,0.194400,-0.031434,0.200000,0.237500,0.200000,0.247242,0.198282,0.247242,0.198282,$1*%
%AMFreePoly6*
4,1,48,0.134742,0.310782,0.138024,0.311361,0.140910,0.309695,0.150652,0.307977,0.165579,0.295451,0.182453,0.285709,0.184767,0.279350,0.189952,0.275000,0.193336,0.255809,0.200000,0.237500,0.200000,-0.031434,0.199191,-0.036020,0.199714,-0.037971,0.198320,-0.040960,0.195477,-0.057086,0.184952,-0.069629,0.178033,-0.084467,-0.028033,-0.290533,-0.031847,-0.293203,-0.032857,-0.294953,
-0.035957,-0.296081,-0.049370,-0.305473,-0.065681,-0.306900,-0.081066,-0.312500,-0.125000,-0.312500,-0.134742,-0.310782,-0.138024,-0.311361,-0.140910,-0.309695,-0.150652,-0.307977,-0.165579,-0.295451,-0.182453,-0.285709,-0.184767,-0.279350,-0.189952,-0.275000,-0.193336,-0.255809,-0.200000,-0.237500,-0.200000,0.237500,-0.198282,0.247242,-0.198861,0.250524,-0.197195,0.253410,-0.195477,0.263152,
-0.182951,0.278079,-0.173209,0.294953,-0.166850,0.297267,-0.162500,0.302452,-0.143309,0.305836,-0.125000,0.312500,0.125000,0.312500,0.134742,0.310782,0.134742,0.310782,$1*%
%AMFreePoly7*
4,1,48,0.134742,0.310782,0.138024,0.311361,0.140910,0.309695,0.150652,0.307977,0.165579,0.295451,0.182453,0.285709,0.184767,0.279350,0.189952,0.275000,0.193336,0.255809,0.200000,0.237500,0.200000,-0.237500,0.198282,-0.247242,0.198861,-0.250524,0.197195,-0.253410,0.195477,-0.263152,0.182951,-0.278079,0.173209,-0.294953,0.166850,-0.297267,0.162500,-0.302452,0.143309,-0.305836,
0.125000,-0.312500,0.081066,-0.312500,0.076480,-0.311691,0.074529,-0.312214,0.071540,-0.310820,0.055414,-0.307977,0.042871,-0.297452,0.028033,-0.290533,-0.178033,-0.084467,-0.180703,-0.080653,-0.182453,-0.079643,-0.183581,-0.076543,-0.192973,-0.063130,-0.194400,-0.046819,-0.200000,-0.031434,-0.200000,0.237500,-0.198282,0.247242,-0.198861,0.250524,-0.197195,0.253410,-0.195477,0.263152,
-0.182951,0.278079,-0.173209,0.294953,-0.166850,0.297267,-0.162500,0.302452,-0.143309,0.305836,-0.125000,0.312500,0.125000,0.312500,0.134742,0.310782,0.134742,0.310782,$1*%
G04 Aperture macros list end*
%ADD10R,0.920000X1.380000*%
%ADD11R,1.160000X1.470000*%
%ADD12R,2.200000X1.200000*%
%ADD13R,6.400000X5.800000*%
%ADD14R,1.470000X1.160000*%
%ADD15R,1.422400X0.431800*%
%ADD16R,2.794000X5.308600*%
%ADD17R,1.380000X0.920000*%
%ADD18R,0.800000X1.500000*%
%ADD19R,1.300000X1.100000*%
%ADD20R,0.900000X0.800000*%
%ADD21R,1.449997X1.305598*%
%ADD22R,1.280000X1.560000*%
%ADD23R,1.305598X1.449997*%
%ADD24R,1.508000X1.508000*%
%ADD25C,1.508000*%
%ADD26R,6.000000X6.000000*%
%ADD27FreePoly0,0.000000*%
%ADD28RoundRect,0.100000X-0.212500X-0.100000X0.212500X-0.100000X0.212500X0.100000X-0.212500X0.100000X0*%
%ADD29FreePoly1,0.000000*%
%ADD30FreePoly2,0.000000*%
%ADD31RoundRect,0.100000X-0.100000X-0.212500X0.100000X-0.212500X0.100000X0.212500X-0.100000X0.212500X0*%
%ADD32FreePoly3,0.000000*%
%ADD33FreePoly4,0.000000*%
%ADD34FreePoly5,0.000000*%
%ADD35FreePoly6,0.000000*%
%ADD36FreePoly7,0.000000*%
%ADD37RoundRect,0.075000X0.075000X-0.700000X0.075000X0.700000X-0.075000X0.700000X-0.075000X-0.700000X0*%
%ADD38RoundRect,0.075000X0.700000X-0.075000X0.700000X0.075000X-0.700000X0.075000X-0.700000X-0.075000X0*%
%ADD39RoundRect,0.070000X0.300000X-0.650000X0.300000X0.650000X-0.300000X0.650000X-0.300000X-0.650000X0*%
%ADD40R,1.200000X1.450000*%
%ADD41C,2.260600*%
%ADD42C,2.844800*%
%ADD43R,1.375600X5.399999*%
%ADD44C,2.050000*%
%ADD45C,2.800000*%
%ADD46C,1.800000*%
%ADD47R,2.500000X1.000000*%
%ADD48R,1.700000X1.700000*%
%ADD49O,1.700000X1.700000*%
%ADD50C,2.000000*%
%ADD51R,1.270000X5.080000*%
%ADD52C,17.800000*%
%ADD53C,10.000000*%
%ADD54R,1.520000X1.200000*%
%ADD55C,1.524000*%
%ADD56R,1.600000X1.600000*%
%ADD57O,1.600000X1.600000*%
%ADD58R,1.570000X0.410000*%
%ADD59R,2.480000X3.400000*%
%ADD60R,1.080000X1.770000*%
%ADD61C,1.574800*%
%ADD62RoundRect,0.218750X0.218750X0.256250X-0.218750X0.256250X-0.218750X-0.256250X0.218750X-0.256250X0*%
%ADD63R,1.200000X0.600000*%
%ADD64R,1.005599X0.949998*%
%ADD65C,6.100000*%
%ADD66R,0.700000X0.200000*%
%ADD67R,1.420000X1.200000*%
G04 APERTURE END LIST*
D10*
X201361000Y-111972000D03*
X203271000Y-111972000D03*
D11*
X206430000Y-124003000D03*
X204670000Y-124003000D03*
D12*
X103212124Y-50507865D03*
D13*
X109512124Y-52787865D03*
D12*
X103212124Y-55067865D03*
D14*
X165130000Y-95980000D03*
X165130000Y-94220000D03*
D15*
X146758300Y-119475001D03*
X146758300Y-120124999D03*
X146758300Y-120775001D03*
X146758300Y-121424999D03*
X151101700Y-121424999D03*
X151101700Y-120775001D03*
X151101700Y-120124999D03*
X151101700Y-119475001D03*
D16*
X137371900Y-132950000D03*
X127288100Y-132950000D03*
D17*
X144656051Y-65867156D03*
X144656051Y-67777156D03*
D18*
X108610000Y-60750000D03*
X106070000Y-60750000D03*
X106070000Y-67050000D03*
X108610000Y-67050000D03*
D19*
X155930000Y-105090000D03*
X158230000Y-105090000D03*
X158230000Y-103290000D03*
X155930000Y-103290000D03*
D10*
X107405000Y-102220000D03*
X109315000Y-102220000D03*
D20*
X163340000Y-101270000D03*
X163340000Y-103170000D03*
X165340000Y-102220000D03*
D21*
X119670000Y-88287201D03*
X119670000Y-89892799D03*
D22*
X103989000Y-88830000D03*
X102211000Y-88830000D03*
D23*
X170277201Y-91150000D03*
X171882799Y-91150000D03*
X154297201Y-107410000D03*
X155902799Y-107410000D03*
D17*
X145570000Y-93775000D03*
X145570000Y-95685000D03*
D24*
X162380000Y-123075000D03*
D25*
X164920000Y-123075000D03*
X167460000Y-123075000D03*
D10*
X138425000Y-86570000D03*
X136515000Y-86570000D03*
D26*
X104720000Y-118130000D03*
X104720000Y-135130000D03*
D27*
X205717500Y-119370500D03*
D28*
X205717500Y-119870500D03*
X205717500Y-120370500D03*
D29*
X205717500Y-120870500D03*
D30*
X206380000Y-121033000D03*
D31*
X206880000Y-121033000D03*
D32*
X207380000Y-121033000D03*
D33*
X208042500Y-120870500D03*
D28*
X208042500Y-120370500D03*
X208042500Y-119870500D03*
D34*
X208042500Y-119370500D03*
D35*
X207380000Y-119208000D03*
D31*
X206880000Y-119208000D03*
D36*
X206380000Y-119208000D03*
D10*
X136385000Y-80930000D03*
X138295000Y-80930000D03*
D37*
X153470000Y-97525000D03*
X153970000Y-97525000D03*
X154470000Y-97525000D03*
X154970000Y-97525000D03*
X155470000Y-97525000D03*
X155970000Y-97525000D03*
X156470000Y-97525000D03*
X156970000Y-97525000D03*
X157470000Y-97525000D03*
X157970000Y-97525000D03*
X158470000Y-97525000D03*
X158970000Y-97525000D03*
X159470000Y-97525000D03*
X159970000Y-97525000D03*
X160470000Y-97525000D03*
X160970000Y-97525000D03*
D38*
X162895000Y-95600000D03*
X162895000Y-95100000D03*
X162895000Y-94600000D03*
X162895000Y-94100000D03*
X162895000Y-93600000D03*
X162895000Y-93100000D03*
X162895000Y-92600000D03*
X162895000Y-92100000D03*
X162895000Y-91600000D03*
X162895000Y-91100000D03*
X162895000Y-90600000D03*
X162895000Y-90100000D03*
X162895000Y-89600000D03*
X162895000Y-89100000D03*
X162895000Y-88600000D03*
X162895000Y-88100000D03*
D37*
X160970000Y-86175000D03*
X160470000Y-86175000D03*
X159970000Y-86175000D03*
X159470000Y-86175000D03*
X158970000Y-86175000D03*
X158470000Y-86175000D03*
X157970000Y-86175000D03*
X157470000Y-86175000D03*
X156970000Y-86175000D03*
X156470000Y-86175000D03*
X155970000Y-86175000D03*
X155470000Y-86175000D03*
X154970000Y-86175000D03*
X154470000Y-86175000D03*
X153970000Y-86175000D03*
X153470000Y-86175000D03*
D38*
X151545000Y-88100000D03*
X151545000Y-88600000D03*
X151545000Y-89100000D03*
X151545000Y-89600000D03*
X151545000Y-90100000D03*
X151545000Y-90600000D03*
X151545000Y-91100000D03*
X151545000Y-91600000D03*
X151545000Y-92100000D03*
X151545000Y-92600000D03*
X151545000Y-93100000D03*
X151545000Y-93600000D03*
X151545000Y-94100000D03*
X151545000Y-94600000D03*
X151545000Y-95100000D03*
X151545000Y-95600000D03*
D18*
X153060000Y-60750000D03*
X150520000Y-60750000D03*
X150520000Y-67050000D03*
X153060000Y-67050000D03*
X138068000Y-60738000D03*
X135528000Y-60738000D03*
X135528000Y-67038000D03*
X138068000Y-67038000D03*
D39*
X165763505Y-57340958D03*
X167663505Y-57340958D03*
X166713505Y-55240958D03*
D11*
X159830000Y-99950000D03*
X161590000Y-99950000D03*
D18*
X124076223Y-60750000D03*
X121536223Y-60750000D03*
X121536223Y-67050000D03*
X124076223Y-67050000D03*
D40*
X103915560Y-91160003D03*
X102215560Y-91160003D03*
D12*
X118401365Y-50570185D03*
D13*
X124701365Y-52850185D03*
D12*
X118401365Y-55130185D03*
D41*
X93450000Y-91700001D03*
X93450000Y-95700000D03*
X93450000Y-99700000D03*
X93450000Y-103700000D03*
X93450000Y-107699999D03*
X93450000Y-111699999D03*
X93450000Y-115699998D03*
X93450000Y-119699998D03*
X89450000Y-93699999D03*
X89450000Y-97699999D03*
X89450000Y-101699999D03*
X89450000Y-105699998D03*
X89450000Y-109699998D03*
X89450000Y-113699997D03*
X89450000Y-117699997D03*
X85450000Y-91700001D03*
X85450000Y-95700000D03*
X85450000Y-99700000D03*
X85450000Y-103700000D03*
X85450000Y-107699999D03*
X85450000Y-111699999D03*
X85450000Y-115699998D03*
X85450000Y-119699998D03*
D42*
X88950115Y-126199995D03*
X88950115Y-85200001D03*
D11*
X154130000Y-83160000D03*
X152370000Y-83160000D03*
D10*
X138375000Y-89720000D03*
X136465000Y-89720000D03*
D14*
X148860000Y-93850000D03*
X148860000Y-95610000D03*
D43*
X121117800Y-137730000D03*
X115682200Y-137730000D03*
D17*
X156790000Y-65125000D03*
X156790000Y-67035000D03*
D10*
X140330000Y-82240000D03*
X142240000Y-82240000D03*
D44*
X86940000Y-71320000D03*
D45*
X82940000Y-56320000D03*
X82940000Y-71320000D03*
D44*
X86940000Y-56320000D03*
D46*
X88707000Y-65587000D03*
X88707000Y-62053000D03*
X85173000Y-62053000D03*
X85173000Y-65587000D03*
D10*
X104515000Y-79630000D03*
X102605000Y-79630000D03*
D47*
X187076000Y-118020000D03*
X187076000Y-115520000D03*
D21*
X104990000Y-104802799D03*
X104990000Y-103197201D03*
D40*
X116030000Y-104820000D03*
X117730000Y-104820000D03*
D10*
X160590000Y-78510000D03*
X162500000Y-78510000D03*
D48*
X179620000Y-82335000D03*
D49*
X179620000Y-84875000D03*
X179620000Y-87415000D03*
D10*
X180630000Y-72130000D03*
X182540000Y-72130000D03*
D40*
X128400000Y-113640000D03*
X126700000Y-113640000D03*
D50*
X222570000Y-107470000D03*
X222570000Y-110010000D03*
X222570000Y-112550000D03*
X222570000Y-115090000D03*
X222570000Y-117630000D03*
X222570000Y-120170000D03*
D24*
X123988000Y-120985000D03*
D25*
X126528000Y-120985000D03*
X129068000Y-120985000D03*
D10*
X97285000Y-80460000D03*
X99195000Y-80460000D03*
X136386454Y-84128383D03*
X138296454Y-84128383D03*
D51*
X170865000Y-134060000D03*
X192835000Y-134060000D03*
D52*
X181850000Y-134060000D03*
D15*
X146568300Y-112985001D03*
X146568300Y-113634999D03*
X146568300Y-114285001D03*
X146568300Y-114934999D03*
X150911700Y-114934999D03*
X150911700Y-114285001D03*
X150911700Y-113634999D03*
X150911700Y-112985001D03*
D10*
X166255000Y-78500000D03*
X164345000Y-78500000D03*
D53*
X174520000Y-48120000D03*
D10*
X156145000Y-100750000D03*
X158055000Y-100750000D03*
D17*
X109040000Y-106475000D03*
X109040000Y-104565000D03*
D40*
X166580000Y-115140000D03*
X164880000Y-115140000D03*
D54*
X118400000Y-128930000D03*
X118400000Y-133250000D03*
D11*
X152120000Y-101380000D03*
X153880000Y-101380000D03*
D55*
X128500000Y-106560000D03*
X128500000Y-104020000D03*
X131040000Y-106560000D03*
X131040000Y-104020000D03*
X133580000Y-106560000D03*
X133580000Y-104020000D03*
X136120000Y-106560000D03*
X136120000Y-104020000D03*
X138660000Y-106560000D03*
X138660000Y-104020000D03*
D17*
X106300000Y-94125000D03*
X106300000Y-96035000D03*
X112915000Y-63965000D03*
X112915000Y-65875000D03*
D20*
X99249169Y-84338900D03*
X99249169Y-82438900D03*
X97249169Y-83388900D03*
D23*
X160122799Y-107410000D03*
X158517201Y-107410000D03*
D11*
X196084000Y-110702000D03*
X194324000Y-110702000D03*
D56*
X163090000Y-69480000D03*
D57*
X165630000Y-69480000D03*
X168170000Y-69480000D03*
X170710000Y-69480000D03*
X170710000Y-61860000D03*
X168170000Y-61860000D03*
X165630000Y-61860000D03*
X163090000Y-61860000D03*
D58*
X103510000Y-82421000D03*
X103510000Y-83071000D03*
X103510000Y-83721000D03*
X103510000Y-84371000D03*
X103510000Y-85021000D03*
X103510000Y-85671000D03*
X103510000Y-86321000D03*
X103510000Y-86971000D03*
X109250000Y-86971000D03*
X109250000Y-86321000D03*
X109250000Y-85671000D03*
X109250000Y-85021000D03*
X109250000Y-84371000D03*
X109250000Y-83721000D03*
X109250000Y-83071000D03*
X109250000Y-82421000D03*
D59*
X106380000Y-84696000D03*
D56*
X190642000Y-115284000D03*
D57*
X190642000Y-117824000D03*
X190642000Y-120364000D03*
X190642000Y-122904000D03*
X198262000Y-122904000D03*
X198262000Y-120364000D03*
X198262000Y-117824000D03*
X198262000Y-115284000D03*
D17*
X130990000Y-65740000D03*
X130990000Y-67650000D03*
D10*
X142375000Y-88000000D03*
X140465000Y-88000000D03*
X121675000Y-88274000D03*
X123585000Y-88274000D03*
D60*
X124235000Y-125700000D03*
X121245000Y-125700000D03*
D53*
X217520000Y-142120000D03*
D22*
X116001000Y-101800000D03*
X117779000Y-101800000D03*
D60*
X163725000Y-128090000D03*
X166715000Y-128090000D03*
D20*
X103970000Y-95950000D03*
X103970000Y-94050000D03*
X101970000Y-95000000D03*
D61*
X148410000Y-137090000D03*
X148410000Y-129590000D03*
D62*
X178515000Y-72130000D03*
X176940000Y-72130000D03*
D63*
X164395000Y-76575000D03*
X162595000Y-76575000D03*
X162595000Y-75625000D03*
X164395000Y-75625000D03*
D11*
X168318784Y-72161043D03*
X170068784Y-72161043D03*
X210740000Y-123623000D03*
X208980000Y-123623000D03*
D22*
X153059644Y-80246821D03*
X151281644Y-80246821D03*
D12*
X132765000Y-50645000D03*
D13*
X139065000Y-52925000D03*
D12*
X132765000Y-55205000D03*
D58*
X110764202Y-94663301D03*
X110764202Y-95313301D03*
X110764202Y-95963301D03*
X110764202Y-96613301D03*
X110764202Y-97263301D03*
X110764202Y-97913301D03*
X110764202Y-98563301D03*
X110764202Y-99213301D03*
X116504202Y-99213301D03*
X116504202Y-98563301D03*
X116504202Y-97913301D03*
X116504202Y-97263301D03*
X116504202Y-96613301D03*
X116504202Y-95963301D03*
X116504202Y-95313301D03*
X116504202Y-94663301D03*
D59*
X113634202Y-96938301D03*
D53*
X86520000Y-142120000D03*
D10*
X207203000Y-112226000D03*
X209113000Y-112226000D03*
D14*
X165360000Y-89240000D03*
X165360000Y-87480000D03*
D53*
X86520000Y-48120000D03*
D64*
X160102201Y-102080000D03*
X161557799Y-102080000D03*
D65*
X221090000Y-100020000D03*
X188090000Y-100020000D03*
X221090000Y-52020000D03*
X188090000Y-52020000D03*
D66*
X186090000Y-68720000D03*
X189170000Y-68720000D03*
X186090000Y-69120000D03*
X189170000Y-69120000D03*
X186090000Y-69520000D03*
X189170000Y-69520000D03*
X186090000Y-69920000D03*
X189170000Y-69920000D03*
X186090000Y-70320000D03*
X189170000Y-70320000D03*
X186090000Y-70720000D03*
X189170000Y-70720000D03*
X186090000Y-71120000D03*
X189170000Y-71120000D03*
X186090000Y-71520000D03*
X189170000Y-71520000D03*
X186090000Y-71920000D03*
X189170000Y-71920000D03*
X186090000Y-72320000D03*
X189170000Y-72320000D03*
X186090000Y-72720000D03*
X189170000Y-72720000D03*
X186090000Y-73120000D03*
X189170000Y-73120000D03*
X186090000Y-73520000D03*
X189170000Y-73520000D03*
X186090000Y-73920000D03*
X189170000Y-73920000D03*
X186090000Y-74320000D03*
X189170000Y-74320000D03*
X186090000Y-74720000D03*
X189170000Y-74720000D03*
X186090000Y-75120000D03*
X189170000Y-75120000D03*
X186090000Y-75520000D03*
X189170000Y-75520000D03*
X186090000Y-75920000D03*
X189170000Y-75920000D03*
X186090000Y-76320000D03*
X189170000Y-76320000D03*
X186090000Y-76720000D03*
X189170000Y-76720000D03*
X186090000Y-77120000D03*
X189170000Y-77120000D03*
X186090000Y-77520000D03*
X189170000Y-77520000D03*
X186090000Y-77920000D03*
X189170000Y-77920000D03*
X186090000Y-78320000D03*
X189170000Y-78320000D03*
X186090000Y-78720000D03*
X189170000Y-78720000D03*
X186090000Y-79120000D03*
X189170000Y-79120000D03*
X186090000Y-79520000D03*
X189170000Y-79520000D03*
X186090000Y-79920000D03*
X189170000Y-79920000D03*
X186090000Y-80320000D03*
X189170000Y-80320000D03*
X186090000Y-80720000D03*
X189170000Y-80720000D03*
X186090000Y-81120000D03*
X189170000Y-81120000D03*
X186090000Y-81520000D03*
X189170000Y-81520000D03*
X186090000Y-81920000D03*
X189170000Y-81920000D03*
X186090000Y-82320000D03*
X189170000Y-82320000D03*
X186090000Y-82720000D03*
X189170000Y-82720000D03*
X186090000Y-83120000D03*
X189170000Y-83120000D03*
X186090000Y-83520000D03*
X189170000Y-83520000D03*
X186090000Y-83920000D03*
X189170000Y-83920000D03*
X186090000Y-84320000D03*
X189170000Y-84320000D03*
X186090000Y-84720000D03*
X189170000Y-84720000D03*
X186090000Y-85120000D03*
X189170000Y-85120000D03*
X186090000Y-85520000D03*
X189170000Y-85520000D03*
X186090000Y-85920000D03*
X189170000Y-85920000D03*
X186090000Y-86320000D03*
X189170000Y-86320000D03*
X186090000Y-86720000D03*
X189170000Y-86720000D03*
X186090000Y-87120000D03*
X189170000Y-87120000D03*
X186090000Y-87520000D03*
X189170000Y-87520000D03*
X186090000Y-87920000D03*
X189170000Y-87920000D03*
X186090000Y-88320000D03*
X189170000Y-88320000D03*
X220010000Y-68720000D03*
X223090000Y-68720000D03*
X220010000Y-69120000D03*
X223090000Y-69120000D03*
X220010000Y-69520000D03*
X223090000Y-69520000D03*
X220010000Y-69920000D03*
X223090000Y-69920000D03*
X220010000Y-70320000D03*
X223090000Y-70320000D03*
X220010000Y-70720000D03*
X223090000Y-70720000D03*
X220010000Y-71120000D03*
X223090000Y-71120000D03*
X220010000Y-71520000D03*
X223090000Y-71520000D03*
X220010000Y-71920000D03*
X223090000Y-71920000D03*
X220010000Y-72320000D03*
X223090000Y-72320000D03*
X220010000Y-72720000D03*
X223090000Y-72720000D03*
X220010000Y-73120000D03*
X223090000Y-73120000D03*
X220010000Y-73520000D03*
X223090000Y-73520000D03*
X220010000Y-73920000D03*
X223090000Y-73920000D03*
X220010000Y-74320000D03*
X223090000Y-74320000D03*
X220010000Y-74720000D03*
X223090000Y-74720000D03*
X220010000Y-75120000D03*
X223090000Y-75120000D03*
X220010000Y-75520000D03*
X223090000Y-75520000D03*
X220010000Y-75920000D03*
X223090000Y-75920000D03*
X220010000Y-76320000D03*
X223090000Y-76320000D03*
X220010000Y-76720000D03*
X223090000Y-76720000D03*
X220010000Y-77120000D03*
X223090000Y-77120000D03*
X220010000Y-77520000D03*
X223090000Y-77520000D03*
X220010000Y-77920000D03*
X223090000Y-77920000D03*
X220010000Y-78320000D03*
X223090000Y-78320000D03*
X220010000Y-78720000D03*
X223090000Y-78720000D03*
X220010000Y-79120000D03*
X223090000Y-79120000D03*
X220010000Y-79520000D03*
X223090000Y-79520000D03*
X220010000Y-79920000D03*
X223090000Y-79920000D03*
X220010000Y-80320000D03*
X223090000Y-80320000D03*
X220010000Y-80720000D03*
X223090000Y-80720000D03*
X220010000Y-81120000D03*
X223090000Y-81120000D03*
X220010000Y-81520000D03*
X223090000Y-81520000D03*
X220010000Y-81920000D03*
X223090000Y-81920000D03*
X220010000Y-82320000D03*
X223090000Y-82320000D03*
X220010000Y-82720000D03*
X223090000Y-82720000D03*
X220010000Y-83120000D03*
X223090000Y-83120000D03*
X220010000Y-83520000D03*
X223090000Y-83520000D03*
X220010000Y-83920000D03*
X223090000Y-83920000D03*
X220010000Y-84320000D03*
X223090000Y-84320000D03*
X220010000Y-84720000D03*
X223090000Y-84720000D03*
X220010000Y-85120000D03*
X223090000Y-85120000D03*
X220010000Y-85520000D03*
X223090000Y-85520000D03*
X220010000Y-85920000D03*
X223090000Y-85920000D03*
X220010000Y-86320000D03*
X223090000Y-86320000D03*
X220010000Y-86720000D03*
X223090000Y-86720000D03*
X220010000Y-87120000D03*
X223090000Y-87120000D03*
X220010000Y-87520000D03*
X223090000Y-87520000D03*
X220010000Y-87920000D03*
X223090000Y-87920000D03*
X220010000Y-88320000D03*
X223090000Y-88320000D03*
D67*
X162560000Y-107600000D03*
X162560000Y-105880000D03*
D12*
X147388621Y-50754991D03*
D13*
X153688621Y-53034991D03*
D12*
X147388621Y-55314991D03*
M02*
