G04 #@! TF.GenerationSoftware,KiCad,Pcbnew,5.99.0-unknown-6a369b230f~117~ubuntu20.04.1*
G04 #@! TF.CreationDate,2021-05-15T18:55:41+08:00*
G04 #@! TF.ProjectId,Controller,436f6e74-726f-46c6-9c65-722e6b696361,rev?*
G04 #@! TF.SameCoordinates,Original*
G04 #@! TF.FileFunction,Soldermask,Bot*
G04 #@! TF.FilePolarity,Negative*
%FSLAX46Y46*%
G04 Gerber Fmt 4.6, Leading zero omitted, Abs format (unit mm)*
G04 Created by KiCad (PCBNEW 5.99.0-unknown-6a369b230f~117~ubuntu20.04.1) date 2021-05-15 18:55:41*
%MOMM*%
%LPD*%
G01*
G04 APERTURE LIST*
%ADD10R,1.508000X1.508000*%
%ADD11C,1.508000*%
%ADD12C,2.260600*%
%ADD13C,2.844800*%
%ADD14C,2.050000*%
%ADD15C,2.800000*%
%ADD16C,1.800000*%
%ADD17R,1.700000X1.700000*%
%ADD18O,1.700000X1.700000*%
%ADD19C,2.000000*%
%ADD20C,10.000000*%
%ADD21C,1.524000*%
%ADD22R,1.600000X1.600000*%
%ADD23O,1.600000X1.600000*%
%ADD24C,1.574800*%
%ADD25C,6.100000*%
G04 APERTURE END LIST*
D10*
X162380000Y-123075000D03*
D11*
X164920000Y-123075000D03*
X167460000Y-123075000D03*
D12*
X93450000Y-91700001D03*
X93450000Y-95700000D03*
X93450000Y-99700000D03*
X93450000Y-103700000D03*
X93450000Y-107699999D03*
X93450000Y-111699999D03*
X93450000Y-115699998D03*
X93450000Y-119699998D03*
X89450000Y-93699999D03*
X89450000Y-97699999D03*
X89450000Y-101699999D03*
X89450000Y-105699998D03*
X89450000Y-109699998D03*
X89450000Y-113699997D03*
X89450000Y-117699997D03*
X85450000Y-91700001D03*
X85450000Y-95700000D03*
X85450000Y-99700000D03*
X85450000Y-103700000D03*
X85450000Y-107699999D03*
X85450000Y-111699999D03*
X85450000Y-115699998D03*
X85450000Y-119699998D03*
D13*
X88950115Y-126199995D03*
X88950115Y-85200001D03*
D14*
X86940000Y-71320000D03*
D15*
X82940000Y-56320000D03*
X82940000Y-71320000D03*
D14*
X86940000Y-56320000D03*
D16*
X88707000Y-65587000D03*
X88707000Y-62053000D03*
X85173000Y-62053000D03*
X85173000Y-65587000D03*
D17*
X179620000Y-82335000D03*
D18*
X179620000Y-84875000D03*
X179620000Y-87415000D03*
D19*
X222570000Y-107470000D03*
X222570000Y-110010000D03*
X222570000Y-112550000D03*
X222570000Y-115090000D03*
X222570000Y-117630000D03*
X222570000Y-120170000D03*
D10*
X123988000Y-120985000D03*
D11*
X126528000Y-120985000D03*
X129068000Y-120985000D03*
D20*
X174520000Y-48120000D03*
D21*
X128500000Y-106560000D03*
X128500000Y-104020000D03*
X131040000Y-106560000D03*
X131040000Y-104020000D03*
X133580000Y-106560000D03*
X133580000Y-104020000D03*
X136120000Y-106560000D03*
X136120000Y-104020000D03*
X138660000Y-106560000D03*
X138660000Y-104020000D03*
D22*
X163090000Y-69480000D03*
D23*
X165630000Y-69480000D03*
X168170000Y-69480000D03*
X170710000Y-69480000D03*
X170710000Y-61860000D03*
X168170000Y-61860000D03*
X165630000Y-61860000D03*
X163090000Y-61860000D03*
D22*
X190642000Y-115284000D03*
D23*
X190642000Y-117824000D03*
X190642000Y-120364000D03*
X190642000Y-122904000D03*
X198262000Y-122904000D03*
X198262000Y-120364000D03*
X198262000Y-117824000D03*
X198262000Y-115284000D03*
D20*
X217520000Y-142120000D03*
D24*
X148410000Y-137090000D03*
X148410000Y-129590000D03*
D20*
X86520000Y-142120000D03*
X86520000Y-48120000D03*
D25*
X221090000Y-100020000D03*
X188090000Y-100020000D03*
X221090000Y-52020000D03*
X188090000Y-52020000D03*
M02*
